<?xml version="1.0" encoding="utf-8"?>
<!-- Generator: Adobe Illustrator 27.5.0, SVG Export Plug-In . SVG Version: 6.00 Build 0)  -->
<svg version="1.1" id="Layer_1" xmlns="http://www.w3.org/2000/svg" xmlns:xlink="http://www.w3.org/1999/xlink" x="0px" y="0px"
	 viewBox="0 0 32 32" style="enable-background:new 0 0 32 32;" xml:space="preserve">
<style type="text/css">
	.st0{fill:url(#SVGID_1_);}
	.st1{fill:url(#SVGID_00000010303957697301069710000015122867855760603571_);}
	.st2{fill:url(#SVGID_00000003794433614003269150000003515259884914356896_);}
	.st3{fill:url(#SVGID_00000029031128205348844980000009596247637401092540_);}
	.st4{fill:url(#SVGID_00000116195493788506856680000011316074481671426950_);}
	.st5{fill:url(#SVGID_00000155138636545466761830000009051150594363086994_);}
	.st6{fill:url(#SVGID_00000137847134768354389530000004940044242665543326_);}
	.st7{fill:url(#SVGID_00000024001764423109413290000006741731826124532652_);}
	.st8{fill:url(#SVGID_00000042720378682189748160000011333381983397487778_);}
	.st9{fill:#683C11;}
</style>
<g>
	<linearGradient id="SVGID_1_" gradientUnits="userSpaceOnUse" x1="5.0265" y1="1.1698" x2="7.1921" y2="1.1698">
		<stop  offset="0" style="stop-color:#FFFFFF"/>
		<stop  offset="1" style="stop-color:#010202"/>
	</linearGradient>
	<polygon class="st0" points="5,2.2 5,1.6 7.2,0.1 7.2,1.7 	"/>
	
		<linearGradient id="SVGID_00000155141557271601790310000004800937925104371075_" gradientUnits="userSpaceOnUse" x1="7.3829" y1="0.8996" x2="24.6114" y2="0.8996">
		<stop  offset="0" style="stop-color:#FFFFFF"/>
		<stop  offset="1" style="stop-color:#010202"/>
	</linearGradient>
	<rect x="7.4" y="0.1" style="fill:url(#SVGID_00000155141557271601790310000004800937925104371075_);" width="17.2" height="1.6"/>
	
		<linearGradient id="SVGID_00000001655206744591590210000000994627061680895386_" gradientUnits="userSpaceOnUse" x1="7.3829" y1="6.0026" x2="24.6114" y2="6.0026">
		<stop  offset="0" style="stop-color:#FFFFFF"/>
		<stop  offset="1" style="stop-color:#010202"/>
	</linearGradient>
	<rect x="7.4" y="1.9" style="fill:url(#SVGID_00000001655206744591590210000000994627061680895386_);" width="17.2" height="8.2"/>
	
		<linearGradient id="SVGID_00000036949695680668308230000008906761688891744141_" gradientUnits="userSpaceOnUse" x1="7.3829" y1="11.0937" x2="24.6114" y2="11.0937">
		<stop  offset="0" style="stop-color:#FFFFFF"/>
		<stop  offset="1" style="stop-color:#010202"/>
	</linearGradient>
	
		<rect x="7.4" y="10.3" style="fill:url(#SVGID_00000036949695680668308230000008906761688891744141_);" width="17.2" height="1.6"/>
	
		<linearGradient id="SVGID_00000009572062407417305130000012583533181559583366_" gradientUnits="userSpaceOnUse" x1="5.0265" y1="6.0026" x2="7.1921" y2="6.0026">
		<stop  offset="0" style="stop-color:#FFFFFF"/>
		<stop  offset="1" style="stop-color:#010202"/>
	</linearGradient>
	<polygon style="fill:url(#SVGID_00000009572062407417305130000012583533181559583366_);" points="5,2.5 7.2,1.9 7.2,10.1 5,9.6 	
		"/>
	
		<linearGradient id="SVGID_00000176758559957335200960000009425072985971759288_" gradientUnits="userSpaceOnUse" x1="24.8136" y1="6.0026" x2="26.9792" y2="6.0026">
		<stop  offset="0" style="stop-color:#FFFFFF"/>
		<stop  offset="1" style="stop-color:#010202"/>
	</linearGradient>
	<polygon style="fill:url(#SVGID_00000176758559957335200960000009425072985971759288_);" points="27,2.5 24.8,1.9 24.8,10.1 
		27,9.6 	"/>
	
		<linearGradient id="SVGID_00000173866824133048483840000006770264384312926869_" gradientUnits="userSpaceOnUse" x1="24.8136" y1="1.1667" x2="26.9792" y2="1.1667">
		<stop  offset="0" style="stop-color:#FFFFFF"/>
		<stop  offset="1" style="stop-color:#010202"/>
	</linearGradient>
	<polygon style="fill:url(#SVGID_00000173866824133048483840000006770264384312926869_);" points="27,2.2 27,1.6 24.8,0.1 24.8,1.7 
			"/>
	
		<linearGradient id="SVGID_00000147913694832101255200000008053553050741699457_" gradientUnits="userSpaceOnUse" x1="5.0208" y1="10.8314" x2="7.1864" y2="10.8314">
		<stop  offset="0" style="stop-color:#FFFFFF"/>
		<stop  offset="1" style="stop-color:#010202"/>
	</linearGradient>
	<polygon style="fill:url(#SVGID_00000147913694832101255200000008053553050741699457_);" points="5,9.8 5,10.4 7.2,11.9 7.2,10.3 	
		"/>
	
		<linearGradient id="SVGID_00000019659219638899291200000009900548982779077026_" gradientUnits="userSpaceOnUse" x1="24.8079" y1="10.8345" x2="26.9735" y2="10.8345">
		<stop  offset="0" style="stop-color:#FFFFFF"/>
		<stop  offset="1" style="stop-color:#010202"/>
	</linearGradient>
	<polygon style="fill:url(#SVGID_00000019659219638899291200000009900548982779077026_);" points="27,9.8 27,10.4 24.8,11.9 
		24.8,10.3 	"/>
</g>
<g>
	<polygon class="st9" points="15.2,11.8 16.8,11.8 16,12.6 	"/>
	<path class="st9" d="M14.8,11.8c0.1,0,0.1,0,0.2,0c0,0,0,0.1,0,0.1c0.1,0.1,0.1,0.2,0.2,0.2c0.3,0.3,0.3,0.3,0.3,0.3
		c0.1,0.1,0.2,0.2,0.3,0.3c0,0-0.1,0.1-0.1,0.1c-0.1,0.1-0.2,0.1-0.3,0.2c-0.1,0.1-0.2,0.2-0.2,0.3c-0.1,0.1-0.1,0.1-0.1,0.2
		c0,0,0,0-0.1-0.1c-0.1-0.1-0.1-0.3-0.1-0.4c0-0.1,0-0.1,0-0.3c0-0.1,0-0.2,0-0.3C14.8,12.3,14.8,12.1,14.8,11.8L14.8,11.8
		L14.8,11.8z"/>
	<path class="st9" d="M17.2,16.6C17.2,16.6,17.2,16.6,17.2,16.6c-0.1,0.1-0.1,0.3-0.2,0.5c0,0.1-0.1,0.2-0.2,0.3
		c-0.1,0.2-0.2,0.2-0.4,0.4c-0.2,0.1-0.3,0.3-0.4,0.4c-0.2,0.2-0.2,0.2-0.5,0.5c0,0-0.2,0.2-0.4,0.5c0,0-0.1,0.1-0.1,0.2
		c-0.1,0.1-0.1,0.3-0.1,0.4c0,0.2,0,0.3,0,0.3c0,0.5,0,1.3,0.1,1.3c0,0,0,0,0-0.1c0-0.1,0.1-0.2,0.1-0.2c0.2-0.4,0.4-0.7,0.4-0.7
		c0-0.1,0.2-0.2,0.5-0.5c0.5-0.4,0.7-0.6,0.7-0.6c0.1-0.1,0.2-0.2,0.4-0.4c0.1-0.1,0.1-0.2,0.1-0.3c0.1-0.2,0.1-0.3,0.1-0.6
		c0-0.1,0-0.3,0-0.4C17.2,17.2,17.2,16.9,17.2,16.6z"/>
	<path class="st9" d="M17.2,21.7C17.2,21.7,17.2,21.7,17.2,21.7c-0.1,0.1-0.1,0.3-0.2,0.5c0,0.1-0.1,0.2-0.2,0.3
		c-0.1,0.2-0.2,0.2-0.4,0.4c-0.2,0.1-0.3,0.3-0.4,0.4c-0.2,0.2-0.2,0.2-0.5,0.5c0,0-0.2,0.2-0.4,0.5c0,0-0.1,0.1-0.1,0.2
		c-0.1,0.1-0.1,0.3-0.1,0.4c0,0.2,0,0.3,0,0.3c0,0.5,0,1.3,0.1,1.3c0,0,0,0,0-0.1c0-0.1,0.1-0.2,0.1-0.2c0.2-0.4,0.4-0.7,0.4-0.7
		c0-0.1,0.2-0.2,0.5-0.5c0.5-0.4,0.7-0.6,0.7-0.6c0.1-0.1,0.2-0.2,0.4-0.4c0.1-0.1,0.1-0.2,0.1-0.3c0.1-0.2,0.1-0.3,0.1-0.6
		c0-0.1,0-0.3,0-0.4C17.2,22.3,17.2,22,17.2,21.7z"/>
	<path class="st9" d="M17.2,26.9C17.2,26.9,17.2,26.9,17.2,26.9c-0.1,0.1-0.1,0.3-0.2,0.5c0,0.1-0.1,0.2-0.2,0.3
		c-0.1,0.2-0.2,0.2-0.4,0.4c-0.2,0.1-0.3,0.3-0.4,0.4c-0.2,0.2-0.2,0.2-0.5,0.5c0,0-0.2,0.2-0.4,0.5c0,0-0.1,0.1-0.1,0.2
		c-0.1,0.1-0.1,0.3-0.1,0.4c0,0.2,0,0.3,0,0.3c0,0.5,0,1.3,0.1,1.3c0,0,0,0,0-0.1c0-0.1,0.1-0.2,0.1-0.2c0.2-0.4,0.4-0.7,0.4-0.7
		c0-0.1,0.2-0.2,0.5-0.5c0.5-0.4,0.7-0.6,0.7-0.6c0.1-0.1,0.2-0.2,0.4-0.4c0.1-0.1,0.1-0.2,0.1-0.3c0.1-0.2,0.1-0.3,0.1-0.6
		c0-0.1,0-0.3,0-0.4C17.2,27.5,17.2,27.2,17.2,26.9z"/>
	<path class="st9" d="M16.1,14.7c0.1-0.1,0.2-0.2,0.3-0.3c0.2-0.2,0.3-0.4,0.5-0.5c0,0,0,0,0.1,0.1c0,0.1,0.1,0.2,0.1,0.4
		c0,0.2,0,0.3,0.1,0.4c0,0.3,0,0.6,0,0.7c0,0.3,0,0.5-0.1,0.5c0,0,0,0,0-0.1c0-0.1-0.1-0.2-0.2-0.3c0,0-0.1-0.2-0.3-0.4
		c-0.1-0.1-0.2-0.2-0.3-0.3C16.3,14.8,16.2,14.7,16.1,14.7L16.1,14.7z"/>
	<path class="st9" d="M15,16.6v-0.5c0,0,0-0.1,0.1-0.2c0-0.1,0.1-0.2,0.2-0.4c0.1-0.1,0.2-0.2,0.3-0.3c0.1-0.1,0.2-0.2,0.4-0.3
		c0.1,0,0.1,0.1,0.2,0.2c0.2,0.1,0.2,0.2,0.4,0.4c0.2,0.2,0.3,0.4,0.3,0.4c0,0.1,0.1,0.1,0.1,0.2v0.6c0,0,0,0.1-0.1,0.1
		c-0.1,0.1-0.1,0.2-0.2,0.3c-0.1,0.1-0.1,0.2-0.3,0.3c-0.1,0.1-0.1,0.1-0.3,0.2c-0.1,0.1-0.1,0.1-0.2,0.2c0,0-0.1-0.1-0.1-0.1
		c-0.1-0.1-0.2-0.2-0.3-0.3c-0.1-0.1-0.2-0.2-0.3-0.4C15.2,16.8,15.1,16.7,15,16.6L15,16.6z"/>
	<path class="st9" d="M14.9,16.6c0,0,0,0.1,0,0.2c0,0.1,0,0.1,0.1,0.2c0,0.1,0.1,0.2,0.2,0.3c0.1,0.1,0.2,0.2,0.3,0.3
		c0,0,0.1,0.1,0.3,0.2c0.1,0,0.1,0.1,0.2,0.1c0,0-0.1,0.1-0.1,0.1c-0.1,0.1-0.1,0.1-0.2,0.2c-0.1,0.1-0.2,0.2-0.2,0.2
		c-0.1,0.1-0.2,0.2-0.2,0.2c0,0,0,0.1-0.1,0.1c0,0,0-0.1-0.1-0.1c0,0-0.1-0.1-0.1-0.3c0-0.1,0-0.2-0.1-0.4c0-0.4,0-0.8,0-0.8
		C14.8,17,14.8,16.8,14.9,16.6L14.9,16.6L14.9,16.6z"/>
	<path class="st9" d="M16.1,19.8c0.1-0.1,0.2-0.2,0.3-0.3c0.2-0.2,0.3-0.4,0.5-0.5c0,0,0,0,0.1,0.1c0,0.1,0.1,0.2,0.1,0.4
		c0,0.2,0,0.3,0.1,0.4c0,0.3,0,0.6,0,0.7c0,0.3,0,0.5-0.1,0.5c0,0,0,0,0-0.1c0-0.1-0.1-0.2-0.2-0.3c0,0-0.1-0.2-0.3-0.4
		c-0.1-0.1-0.2-0.2-0.3-0.3C16.3,20,16.2,19.9,16.1,19.8L16.1,19.8z"/>
	<path class="st9" d="M15,21.7v-0.5c0,0,0-0.1,0.1-0.2c0-0.1,0.1-0.2,0.2-0.4c0.1-0.1,0.2-0.2,0.3-0.3c0.1-0.1,0.2-0.2,0.4-0.3
		c0.1,0,0.1,0.1,0.2,0.2c0.2,0.1,0.2,0.2,0.4,0.4c0.2,0.2,0.3,0.4,0.3,0.4c0,0.1,0.1,0.1,0.1,0.2v0.6c0,0,0,0.1-0.1,0.1
		c-0.1,0.1-0.1,0.2-0.2,0.3c-0.1,0.1-0.1,0.2-0.3,0.3c-0.1,0.1-0.1,0.1-0.3,0.2c-0.1,0.1-0.1,0.1-0.2,0.2c0,0-0.1-0.1-0.1-0.1
		c-0.1-0.1-0.2-0.2-0.3-0.3c-0.1-0.1-0.2-0.2-0.3-0.4C15.2,21.9,15.1,21.8,15,21.7L15,21.7z"/>
	<path class="st9" d="M14.9,21.7c0,0,0,0.1,0,0.2c0,0.1,0,0.1,0.1,0.2c0,0.1,0.1,0.2,0.2,0.3c0.1,0.1,0.2,0.2,0.3,0.3
		c0,0,0.1,0.1,0.3,0.2c0.1,0,0.1,0.1,0.2,0.1c0,0-0.1,0.1-0.1,0.1c-0.1,0.1-0.1,0.1-0.2,0.2c-0.1,0.1-0.2,0.2-0.2,0.2
		c-0.1,0.1-0.2,0.2-0.2,0.2c0,0,0,0.1-0.1,0.1c0,0,0-0.1-0.1-0.1c0,0-0.1-0.1-0.1-0.3c0-0.1,0-0.2-0.1-0.4c0-0.4,0-0.8,0-0.8
		C14.8,22.1,14.8,22,14.9,21.7L14.9,21.7L14.9,21.7z"/>
	<path class="st9" d="M16.1,25c0.1-0.1,0.2-0.2,0.3-0.3c0.2-0.2,0.3-0.4,0.5-0.5c0,0,0,0,0.1,0.1c0,0.1,0.1,0.2,0.1,0.4
		c0,0.2,0,0.3,0.1,0.4c0,0.3,0,0.6,0,0.7c0,0.3,0,0.5-0.1,0.5c0,0,0,0,0-0.1c0-0.1-0.1-0.2-0.2-0.3c0,0-0.1-0.2-0.3-0.4
		c-0.1-0.1-0.2-0.2-0.3-0.3C16.3,25.1,16.2,25.1,16.1,25L16.1,25z"/>
	<path class="st9" d="M15,26.9v-0.5c0,0,0-0.1,0.1-0.2c0-0.1,0.1-0.2,0.2-0.4c0.1-0.1,0.2-0.2,0.3-0.3c0.1-0.1,0.2-0.2,0.4-0.3
		c0.1,0,0.1,0.1,0.2,0.2c0.2,0.1,0.2,0.2,0.4,0.4c0.2,0.2,0.3,0.4,0.3,0.4c0,0.1,0.1,0.1,0.1,0.2V27c0,0,0,0.1-0.1,0.1
		c-0.1,0.1-0.1,0.2-0.2,0.3c-0.1,0.1-0.1,0.2-0.3,0.3c-0.1,0.1-0.1,0.1-0.3,0.2C16.1,28,16,28,16,28.1c0,0-0.1-0.1-0.1-0.1
		c-0.1-0.1-0.2-0.2-0.3-0.3c-0.1-0.1-0.2-0.2-0.3-0.4C15.2,27.1,15.1,27,15,26.9L15,26.9z"/>
	<path class="st9" d="M14.9,26.9c0,0,0,0.1,0,0.2c0,0.1,0,0.1,0.1,0.2c0,0.1,0.1,0.2,0.2,0.3c0.1,0.1,0.2,0.2,0.3,0.3
		c0,0,0.1,0.1,0.3,0.2c0.1,0,0.1,0.1,0.2,0.1c0,0-0.1,0.1-0.1,0.1c-0.1,0.1-0.1,0.1-0.2,0.2c-0.1,0.1-0.2,0.2-0.2,0.2
		c-0.1,0.1-0.2,0.2-0.2,0.2c0,0,0,0.1-0.1,0.1c0,0,0-0.1-0.1-0.1c0,0-0.1-0.1-0.1-0.3c0-0.1,0-0.2-0.1-0.4c0-0.4,0-0.8,0-0.8
		C14.8,27.3,14.8,27.1,14.9,26.9L14.9,26.9L14.9,26.9z"/>
	<path class="st9" d="M16.2,30.1c0.1-0.1,0.2-0.2,0.3-0.3c0.2-0.2,0.3-0.4,0.5-0.5c0,0,0,0.1,0.1,0.1c0,0,0.1,0.2,0.1,0.5
		c0,0.2,0,0.3,0,0.4c0,0.1,0,0.3,0,0.6c0,0.2,0,0.4-0.1,0.7c0,0,0-0.1,0-0.1c-0.1-0.3-0.3-0.6-0.4-0.7c-0.2-0.2-0.3-0.3-0.4-0.4
		C16.3,30.2,16.3,30.2,16.2,30.1L16.2,30.1z"/>
	<path class="st9" d="M15,32h2v-0.6c0,0,0-0.1-0.1-0.1c0-0.1-0.2-0.3-0.3-0.5c0-0.1-0.1-0.1-0.2-0.2c-0.1-0.1-0.2-0.2-0.3-0.3
		c-0.1,0.1-0.1,0.1-0.2,0.2c-0.1,0.1-0.1,0.1-0.2,0.2c0,0,0,0-0.2,0.2c-0.2,0.2-0.2,0.2-0.2,0.3c-0.1,0.1-0.1,0.2-0.1,0.3L15,32z"/>
	<path class="st9" d="M14.8,16.1c-0.1-0.4-0.1-0.8-0.1-1c0-0.3,0-0.5,0.1-0.8c0.1-0.2,0.2-0.3,0.3-0.5c0-0.1,0.1-0.1,0.3-0.4
		c0.2-0.2,0.3-0.3,0.4-0.4c0.3-0.3,0.3-0.2,0.5-0.5c0.2-0.2,0.3-0.3,0.3-0.4c0.1-0.2,0.2-0.3,0.3-0.4h0.2c0,0.1,0,0.1,0,0.3
		c0,0.4,0,0.5,0,0.6c0,0.3,0,0.4,0,0.4c0,0.1,0,0.2-0.1,0.3c-0.1,0.1-0.1,0.2-0.3,0.4c-0.2,0.2-0.4,0.4-0.4,0.4
		c-0.2,0.2-0.4,0.4-0.6,0.6c-0.1,0.1-0.2,0.2-0.4,0.4c0,0-0.1,0.1-0.2,0.3c-0.1,0.1-0.1,0.2-0.2,0.3c-0.1,0.1-0.1,0.2-0.1,0.3
		L14.8,16.1z"/>
</g>
</svg>
