<?xml version="1.0" encoding="UTF-8"?><svg id="Layer_2" xmlns="http://www.w3.org/2000/svg" viewBox="0 0 210.5 450.52"><defs><style>.cls-1{fill:#faaf3b;}.cls-2{fill:#faffff;}.cls-3{fill:#fff;}.cls-4{fill:#222;}</style></defs><g id="Layer_1-2"><g><rect class="cls-4" x=".5" y="80.02" width="209" height="370"/><path d="M210,450.52H0V79.52H210V450.52Zm-209-1H209V80.52H1V449.52Z"/></g><rect class="cls-3" y="79.02" width="210" height="2"/><g><path class="cls-4" d="M210,.52c-.17,27.17-.33,54.33-.5,81.5H.5V1.26l12-.24s6,12,10,0h12s5,11,10,0h13s2,11,10,0h12s23,59,53,0h12s6,13,10,0h12s4,12,11,0h11s5,12,11,0c3.5-.17,7-.33,10.5-.5Z"/><path d="M210,82.52H0V.77l12.81-.26,.14,.28c.73,1.46,3.11,5.2,5.32,5.05,1.4-.1,2.7-1.82,3.76-4.99l.11-.34h12.68l.13,.29s2.12,4.6,4.73,4.6h0c1.49,0,2.99-1.59,4.36-4.6l.13-.29h13.74l.08,.41s.75,3.94,2.9,4.43c1.59,.36,3.73-1.24,6.2-4.63l.15-.21h12.6l.12,.32c.1,.25,9.98,25.16,24.79,25.89,9.12,.47,18.32-8.27,27.3-25.93l.14-.27h12.63l.13,.29c.73,1.58,3.12,5.62,5.29,5.48,1.41-.09,2.71-1.97,3.77-5.42l.11-.35h12.73l.11,.34s1.6,4.7,4.31,4.98c1.73,.18,3.74-1.57,5.78-5.07l.15-.25h11.62l.13,.31s2.09,4.93,4.94,5.02c1.73,.07,3.45-1.64,5.16-5.06l.13-.26,11.32-.54-.51,82.52ZM1,81.52H209l.49-80.48-9.68,.46c-1.86,3.62-3.84,5.42-5.95,5.35-3.04-.1-5.14-4.16-5.69-5.33h-10.39c-2.24,3.75-4.45,5.54-6.61,5.31-2.89-.3-4.57-4.13-5.03-5.31h-11.28c-1.21,3.76-2.7,5.65-4.55,5.77-2.92,.22-5.51-4.52-6.13-5.77h-11.38c-9.13,17.86-18.6,26.65-28.1,26.2-6.42-.32-12.9-5.02-18.74-13.6-3.82-5.61-6.23-11.22-6.8-12.6h-11.41c-2.7,3.65-5.08,5.27-7.08,4.81-2.33-.53-3.29-3.67-3.57-4.81h-12.28c-1.53,3.24-3.26,4.89-5.13,4.89-2.83,0-4.94-3.78-5.5-4.89h-11.33c-1.19,3.41-2.71,5.2-4.52,5.33-2.95,.22-5.5-4.14-6.14-5.32L1,1.75V81.52Z"/></g><rect class="cls-1" x="68" y="38.52" width="77" height="25"/><g><path class="cls-3" d="M89.73,46.6h2.67c1.21,0,2.1,.17,2.65,.52s.82,.9,.82,1.65c0,.51-.12,.93-.36,1.26s-.56,.53-.96,.59v.06c.54,.12,.93,.35,1.17,.68s.36,.77,.36,1.32c0,.78-.28,1.39-.85,1.83s-1.33,.66-2.3,.66h-3.21v-8.57Zm1.82,3.39h1.05c.49,0,.85-.08,1.07-.23s.33-.4,.33-.76c0-.33-.12-.56-.36-.71s-.62-.21-1.14-.21h-.96v1.9Zm0,1.44v2.23h1.18c.5,0,.87-.1,1.11-.29s.36-.48,.36-.88c0-.71-.51-1.07-1.52-1.07h-1.12Z"/><path class="cls-3" d="M103.04,55.16l-.62-2.04h-3.12l-.62,2.04h-1.96l3.02-8.6h2.22l3.04,8.6h-1.96Zm-1.05-3.56c-.57-1.85-.9-2.89-.97-3.13s-.12-.43-.16-.57c-.13,.5-.5,1.74-1.11,3.71h2.23Z"/><path class="cls-3" d="M111.13,52.78c0,.77-.28,1.38-.83,1.83s-1.33,.67-2.32,.67c-.91,0-1.72-.17-2.43-.52v-1.69c.58,.26,1.07,.44,1.47,.54s.77,.16,1.1,.16c.4,0,.7-.08,.92-.23s.32-.38,.32-.68c0-.17-.05-.32-.14-.45s-.23-.26-.41-.38-.55-.31-1.11-.58c-.52-.25-.92-.48-1.18-.71s-.47-.49-.63-.79-.23-.65-.23-1.05c0-.76,.26-1.35,.77-1.79s1.22-.65,2.13-.65c.45,0,.87,.05,1.27,.16s.83,.25,1.27,.45l-.59,1.41c-.46-.19-.83-.32-1.13-.39s-.59-.11-.88-.11c-.34,0-.61,.08-.79,.24s-.28,.37-.28,.63c0,.16,.04,.3,.11,.42s.19,.23,.35,.35,.55,.31,1.15,.6c.8,.38,1.35,.77,1.65,1.15s.45,.86,.45,1.42Z"/><path class="cls-3" d="M112.68,55.16v-8.57h1.82v8.57h-1.82Z"/><path class="cls-3" d="M120.29,47.98c-.68,0-1.21,.26-1.59,.77s-.56,1.23-.56,2.15c0,1.91,.72,2.87,2.15,2.87,.6,0,1.33-.15,2.19-.45v1.52c-.7,.29-1.49,.44-2.36,.44-1.25,0-2.2-.38-2.86-1.13s-.99-1.84-.99-3.25c0-.89,.16-1.67,.49-2.34s.79-1.18,1.4-1.54,1.32-.54,2.14-.54,1.67,.2,2.51,.6l-.59,1.48c-.32-.15-.64-.29-.97-.4s-.64-.17-.96-.17Z"/></g><g><path class="cls-3" d="M32.8,114.72c0,2-.62,3.52-1.87,4.58s-3.02,1.59-5.33,1.59h-1.69v6.6h-3.94v-18.56h5.93c2.25,0,3.96,.48,5.14,1.45s1.76,2.41,1.76,4.34Zm-8.89,2.95h1.29c1.21,0,2.12-.24,2.72-.72s.9-1.17,.9-2.09-.25-1.6-.76-2.04-1.29-.66-2.37-.66h-1.79v5.51Z"/><path class="cls-3" d="M47.67,127.49l-1.35-4.42h-6.77l-1.35,4.42h-4.24l6.55-18.64h4.81l6.58,18.64h-4.24Zm-2.29-7.72c-1.24-4-1.94-6.27-2.1-6.79s-.27-.94-.34-1.24c-.28,1.08-1.08,3.76-2.4,8.04h4.84Z"/><path class="cls-3" d="M58.18,120.37v7.12h-3.94v-18.56h5.41c2.52,0,4.39,.46,5.6,1.38s1.82,2.31,1.82,4.18c0,1.09-.3,2.06-.9,2.91s-1.45,1.52-2.55,2c2.79,4.17,4.61,6.87,5.46,8.09h-4.37l-4.43-7.12h-2.09Zm0-3.2h1.27c1.24,0,2.16-.21,2.75-.62s.89-1.07,.89-1.96-.3-1.51-.91-1.88-1.54-.56-2.81-.56h-1.19v5.01Z"/><path class="cls-3" d="M78.57,127.49h-3.94v-15.29h-5.04v-3.28h14.02v3.28h-5.04v15.29Z"/><path class="cls-3" d="M103.31,118.19c0,3.07-.76,5.43-2.29,7.08s-3.71,2.48-6.55,2.48-5.03-.83-6.55-2.48-2.29-4.02-2.29-7.11,.76-5.45,2.29-7.08,3.72-2.44,6.57-2.44,5.03,.82,6.54,2.46,2.27,4,2.27,7.08Zm-13.55,0c0,2.07,.39,3.64,1.18,4.68s1.96,1.57,3.53,1.57c3.14,0,4.71-2.09,4.71-6.26s-1.56-6.27-4.68-6.27c-1.57,0-2.75,.53-3.54,1.58s-1.19,2.62-1.19,4.69Z"/><path class="cls-3" d="M122.27,108.93v12.01c0,1.37-.31,2.57-.92,3.61s-1.5,1.82-2.66,2.37-2.53,.83-4.11,.83c-2.39,0-4.24-.61-5.56-1.83s-1.98-2.9-1.98-5.02v-11.96h3.92v11.36c0,1.43,.29,2.48,.86,3.15s1.53,1,2.86,1,2.22-.34,2.8-1.01,.87-1.73,.87-3.17v-11.34h3.92Z"/><path class="cls-3" d="M133.97,127.49h-3.94v-15.29h-5.04v-3.28h14.02v3.28h-5.04v15.29Z"/></g><g><path class="cls-2" d="M19.42,135.21h5.78c2.63,0,4.54,.37,5.73,1.12s1.78,1.94,1.78,3.57c0,1.11-.26,2.02-.78,2.73s-1.21,1.14-2.08,1.28v.13c1.18,.26,2.02,.75,2.55,1.47s.78,1.68,.78,2.87c0,1.69-.61,3.01-1.83,3.96s-2.88,1.42-4.98,1.42h-6.94v-18.56Zm3.94,7.35h2.29c1.07,0,1.84-.17,2.32-.5s.72-.88,.72-1.64c0-.71-.26-1.22-.78-1.53s-1.34-.46-2.47-.46h-2.07v4.13Zm0,3.12v4.84h2.56c1.08,0,1.88-.21,2.4-.62s.77-1.05,.77-1.9c0-1.54-1.1-2.31-3.3-2.31h-2.44Z"/><path class="cls-2" d="M36.89,153.77v-18.56h3.94v18.56h-3.94Z"/><path class="cls-2" d="M45.5,153.77v-18.56h3.94v15.31h7.53v3.25h-11.46Z"/><path class="cls-2" d="M60.19,153.77v-18.56h3.94v15.31h7.53v3.25h-11.46Z"/><path class="cls-2" d="M85.56,153.77h-10.69v-18.56h10.69v3.22h-6.75v4.08h6.28v3.22h-6.28v4.79h6.75v3.25Z"/><path class="cls-2" d="M96.6,153.77h-3.94v-15.29h-5.04v-3.28h14.02v3.28h-5.04v15.29Z"/></g></g></svg>