<?xml version="1.0" encoding="UTF-8"?><svg id="Layer_2" xmlns="http://www.w3.org/2000/svg" xmlns:xlink="http://www.w3.org/1999/xlink" viewBox="0 0 210.5 450.52"><defs><style>.cls-1{fill:none;}.cls-2{clip-path:url(#clippath);}.cls-3{fill:#f4d6a6;}.cls-4{fill:#f4d6a7;}.cls-5{fill:#f4d4a1;}.cls-6{fill:#f4d4a2;}.cls-7{fill:#f4d7a8;}.cls-8{fill:#f4d5a4;}.cls-9{fill:#f4d5a5;}.cls-10{fill:#f4d19d;}.cls-11{fill:#f4d19c;}.cls-12{fill:#f4ce95;}.cls-13{fill:#f4ce96;}.cls-14{fill:#f4cf98;}.cls-15{fill:#f4cf97;}.cls-16{fill:#f4d29e;}.cls-17{fill:#f4d3a0;}.cls-18{fill:#f4d099;}.cls-19{fill:#f4d09a;}.cls-20{fill:#f6dfb9;}.cls-21{fill:#f6deb8;}.cls-22{fill:#f6deb7;}.cls-23{fill:#f6ddb6;}.cls-24{fill:#f6ddb5;}.cls-25{fill:#f6dcb4;}.cls-26{fill:#f6dcb3;}.cls-27{fill:#f7dfba;}.cls-28{fill:#f7e2c1;}.cls-29{fill:#f7e2c0;}.cls-30{fill:#f7e0bc;}.cls-31{fill:#f7e0bb;}.cls-32{fill:#f7dbb1;}.cls-33{fill:#f7dbb2;}.cls-34{fill:#f7deb7;}.cls-35{fill:#f7deb9;}.cls-36{fill:#f7e1bd;}.cls-37{fill:#f7e1be;}.cls-38{fill:#f7e1bf;}.cls-39{fill:#f7ddb5;}.cls-40{fill:#f7dcb4;}.cls-41{fill:#f7dcb3;}.cls-42{fill:#f7ddb6;}.cls-43{fill:#f3cd93;}.cls-44{fill:#f3cd92;}.cls-45{fill:#f3ce94;}.cls-46{fill:#f3d19c;}.cls-47{fill:#f3d19b;}.cls-48{fill:#f3d19a;}.cls-49{fill:#f3d29d;}.cls-50{fill:#f3d29e;}.cls-51{fill:#f3cc91;}.cls-52{fill:#f3d39f;}.cls-53{fill:#f3cc90;}.cls-54{fill:#f9e6c8;}.cls-55{fill:#f9e6ca;}.cls-56{fill:#faaf3b;}.cls-57{fill:#f9ead0;}.cls-58{fill:#f9ead1;}.cls-59{fill:#f9e5c7;}.cls-60{fill:#f9e5c6;}.cls-61{fill:#f9e7cc;}.cls-62{fill:#f9e8ce;}.cls-63{fill:#f9e8cd;}.cls-64{fill:#f9e4c4;}.cls-65{fill:#f9e4c5;}.cls-66{fill:#f9e9cf;}.cls-67{fill:#f9e7cb;}.cls-68{fill:#f8e0bd;}.cls-69{fill:#f8e0bc;}.cls-70{fill:#f8dfbb;}.cls-71{fill:#f8e6c9;}.cls-72{fill:#f8e6c8;}.cls-73{fill:#f8e2c0;}.cls-74{fill:#f8e4c5;}.cls-75{fill:#f8e3c3;}.cls-76{fill:#f8e3c2;}.cls-77{fill:#f8e4c4;}.cls-78{fill:#f8e1bf;}.cls-79{fill:#f8e1be;}.cls-80{fill:#f8e5c6;}.cls-81{fill:#f8e5c7;}.cls-82{fill:#efb968;}.cls-83{fill:#efb967;}.cls-84{fill:#efb969;}.cls-85{fill:#efc47f;}.cls-86{fill:#efc37d;}.cls-87{fill:#efc37e;}.cls-88{fill:#efba6a;}.cls-89{fill:#efba6b;}.cls-90{fill:#efbc6e;}.cls-91{fill:#efbc6f;}.cls-92{fill:#efbb6d;}.cls-93{fill:#efbb6c;}.cls-94{fill:#ecb55e;}.cls-95{fill:#ecb55f;}.cls-96{fill:#f1ca8c;}.cls-97{fill:#f1ca8d;}.cls-98{fill:#f1cc90;}.cls-99{fill:#ecb865;}.cls-100{fill:#ecb866;}.cls-101{fill:#f1c582;}.cls-102{fill:#f1c37f;}.cls-103{fill:#f1c888;}.cls-104{fill:#f1c37d;}.cls-105{fill:#f1c989;}.cls-106{fill:#f1c17a;}.cls-107{fill:#f1c98a;}.cls-108{fill:#f1c37e;}.cls-109{fill:#f1c480;}.cls-110{fill:#f1c481;}.cls-111{fill:#ecb763;}.cls-112{fill:#ecb764;}.cls-113{fill:#ecb662;}.cls-114{fill:#ecb661;}.cls-115{fill:#f1cb8f;}.cls-116{fill:#f1cb8e;}.cls-117{fill:#f1c27c;}.cls-118{fill:#f1c27b;}.cls-119{fill:#ebb35a;}.cls-120{fill:#ebb259;}.cls-121{fill:#ebb258;}.cls-122{fill:#ebb45c;}.cls-123{fill:#ebb35b;}.cls-124{fill:#ebb45d;}.cls-125{fill:#ebb157;}.cls-126{fill:#f5daaf;}.cls-127{fill:#f5daae;}.cls-128{fill:#f5dab0;}.cls-129{fill:#f5d6a6;}.cls-130{fill:#f5d9ac;}.cls-131{fill:#f5d6a7;}.cls-132{fill:#f5d3a1;}.cls-133{fill:#f5d3a0;}.cls-134{fill:#f5d8aa;}.cls-135{fill:#f5d7a9;}.cls-136{fill:#f5d4a3;}.cls-137{fill:#f5d8ab;}.cls-138{fill:#f5d4a2;}.cls-139{fill:#f5d9ad;}.cls-140{fill:#eaae4f;}.cls-141{fill:#eaae50;}.cls-142{fill:#eab055;}.cls-143{fill:#eab053;}.cls-144{fill:#eab156;}.cls-145{fill:#eaaf51;}.cls-146{fill:#eaaf52;}.cls-147{fill:#eaad4e;}.cls-148{fill:#f6dbb2;}.cls-149{fill:#f6dbb1;}.cls-150{fill:#f6d9ae;}.cls-151{fill:#f6d9ad;}.cls-152{fill:#f6daaf;}.cls-153{fill:#f6dab0;}.cls-154{fill:#f6d7a8;}.cls-155{fill:#f6d7a9;}.cls-156{fill:#f6d8aa;}.cls-157{fill:#f6d8ab;}.cls-158{fill:#e7a439;}.cls-159{fill:#e7a63d;}.cls-160{fill:#e7a43a;}.cls-161{fill:#faffff;}.cls-162{fill:#e8a63e;}.cls-163{fill:#e8a944;}.cls-164{fill:#e8a945;}.cls-165{fill:#e8a740;}.cls-166{fill:#e8a741;}.cls-167{fill:#e8a842;}.cls-168{fill:#e8a843;}.cls-169{fill:#e7a53c;}.cls-170{fill:#e7a53b;}.cls-171{fill:#e7a337;}.cls-172{fill:#e7a338;}.cls-173{fill:#e7a235;}.cls-174{fill:#eec076;}.cls-175{fill:#eebe72;}.cls-176{fill:#eebe73;}.cls-177{fill:#eebf75;}.cls-178{fill:#eebf74;}.cls-179{fill:#e9ac4c;}.cls-180{fill:#e9ac4b;}.cls-181{fill:#e9ab48;}.cls-182{fill:#e9ab49;}.cls-183{fill:#eebd70;}.cls-184{fill:#eeb865;}.cls-185{fill:#eebd71;}.cls-186{fill:#eeb866;}.cls-187{fill:#eeb55f;}.cls-188{fill:#eeb55e;}.cls-189{fill:#eeb560;}.cls-190{fill:#eeb45e;}.cls-191{fill:#eeb763;}.cls-192{fill:#eeb764;}.cls-193{fill:#eeb661;}.cls-194{fill:#eeb662;}.cls-195{fill:#eeb663;}.cls-196{fill:#f3cb8f;}.cls-197{fill:#f3cb8e;}.cls-198{fill:#f3ca8c;}.cls-199{fill:#f3ca8d;}.cls-200{fill:#f3d098;}.cls-201{fill:#f3d099;}.cls-202{fill:#fffffe;}.cls-203{fill:#fffdfb;}.cls-204{fill:#fff;}.cls-205{fill:#fffdfc;}.cls-206{fill:#f5d5a5;}.cls-207{fill:#f5d5a4;}.cls-208{fill:#f5d29f;}.cls-209{fill:#fffefd;}.cls-210{fill:#fffefc;}.cls-211{fill:#fffefe;}.cls-212{fill:#e9aa46;}.cls-213{fill:#e9aa47;}.cls-214{fill:#e9ad4d;}.cls-215{fill:#f2c888;}.cls-216{fill:#f2c889;}.cls-217{fill:#f2c684;}.cls-218{fill:#f2c683;}.cls-219{fill:#f2c98a;}.cls-220{fill:#f2c98b;}.cls-221{fill:#f2c787;}.cls-222{fill:#f2c786;}.cls-223{fill:#f2c785;}.cls-224{fill:#f2cc91;}.cls-225{fill:#f2cf97;}.cls-226{fill:#f2cf96;}.cls-227{fill:#f2cd92;}.cls-228{fill:#f2cd93;}.cls-229{fill:#f2ce95;}.cls-230{fill:#f2ce94;}.cls-231{fill:#efc27b;}.cls-232{fill:#efc178;}.cls-233{fill:#efc179;}.cls-234{fill:#efc27c;}.cls-235{fill:#efc077;}.cls-236{fill:#f2c583;}.cls-237{fill:#edb259;}.cls-238{fill:#edb35c;}.cls-239{fill:#edb35b;}.cls-240{fill:#edb25a;}.cls-241{fill:#edb45d;}.cls-242{fill:#edb35a;}.cls-243{fill:#fefbf6;}.cls-244{fill:#fefbf7;}.cls-245{fill:#fefbf5;}.cls-246{fill:#fefaf4;}.cls-247{fill:#fefaf5;}.cls-248{fill:#fefcf8;}.cls-249{fill:#fefcf9;}.cls-250{fill:#fae8cd;}.cls-251{fill:#fae8ce;}.cls-252{fill:#fefdfa;}.cls-253{fill:#fef9f2;}.cls-254{fill:#fef9f3;}.cls-255{fill:#fbeeda;}.cls-256{fill:#fbeedb;}.cls-257{fill:#fbf1e1;}.cls-258{fill:#fbf1e0;}.cls-259{fill:#fbefdc;}.cls-260{fill:#fbefdd;}.cls-261{fill:#faead3;}.cls-262{fill:#faead2;}.cls-263{fill:#fae9d0;}.cls-264{fill:#fae9cf;}.cls-265{fill:#fbf0de;}.cls-266{fill:#fbf0df;}.cls-267{fill:#fbf0e0;}.cls-268{fill:#fbedd7;}.cls-269{fill:#fbedd9;}.cls-270{fill:#fbecd6;}.cls-271{fill:#e6a234;}.cls-272{fill:#e6a133;}.cls-273{fill:#e6a132;}.cls-274{fill:#e6a031;}.cls-275{fill:#faebd4;}.cls-276{fill:#faebd3;}.cls-277{fill:#faecd6;}.cls-278{fill:#faedd7;}.cls-279{fill:#faedd9;}.cls-280{fill:#faedd8;}.cls-281{fill:#faecd5;}.cls-282{fill:#edb968;}.cls-283{fill:#edbb6d;}.cls-284{fill:#edba69;}.cls-285{fill:#edba6a;}.cls-286{fill:#edb967;}.cls-287{fill:#edbc6f;}.cls-288{fill:#edbc6e;}.cls-289{fill:#edbb6b;}.cls-290{fill:#fcf0e0;}.cls-291{fill:#fcf1e1;}.cls-292{fill:#f0c785;}.cls-293{fill:#f0c786;}.cls-294{fill:#f0c887;}.cls-295{fill:#f0c582;}.cls-296{fill:#f0c581;}.cls-297{fill:#f0c480;}.cls-298{fill:#f0c078;}.cls-299{fill:#f0c077;}.cls-300{fill:#f0bf75;}.cls-301{fill:#f0bd70;}.cls-302{fill:#f0bd71;}.cls-303{fill:#f0bf76;}.cls-304{fill:#f0be74;}.cls-305{fill:#f0be73;}.cls-306{fill:#f0c076;}.cls-307{fill:#f0be72;}.cls-308{fill:#f0c179;}.cls-309{fill:#f0c683;}.cls-310{fill:#f0c684;}.cls-311{fill:#fcf3e6;}.cls-312{fill:#fcf3e5;}.cls-313{fill:#fcf3e4;}.cls-314{fill:#fcf5ea;}.cls-315{fill:#fcf2e2;}.cls-316{fill:#fcf2e3;}.cls-317{fill:#fcf5e9;}.cls-318{fill:#fcf4e8;}.cls-319{fill:#fcf4e7;}.cls-320{fill:#fdf6eb;}.cls-321{fill:#fdf6ec;}.cls-322{fill:#fdf5e9;}.cls-323{fill:#fdf9f2;}.cls-324{fill:#fdf9f1;}.cls-325{fill:#fdf5ea;}.cls-326{fill:#fdf4e8;}.cls-327{fill:#fdf7ed;}.cls-328{fill:#fdf7ee;}.cls-329{fill:#fdf8ef;}.cls-330{fill:#fdf8f0;}.cls-331{fill:#222;}</style><clipPath id="clippath"><rect class="cls-1" x=".5" y="80.02" width="209" height="370"/></clipPath></defs><g id="Layer_1-2"><g><g class="cls-2"><polygon class="cls-237" points="13.46 80.02 .5 92.98 .5 80.02 13.46 80.02"/><polygon class="cls-237" points="139.06 80.02 .5 218.59 .5 92.98 13.46 80.02 139.06 80.02"/><polygon class="cls-237" points="140.03 80.02 .5 219.56 .5 218.59 139.06 80.02 140.03 80.02"/><polygon class="cls-237" points="141 80.02 .5 220.52 .5 219.56 140.03 80.02 141 80.02"/><polygon class="cls-240" points="141.97 80.02 .5 221.49 .5 220.52 141 80.02 141.97 80.02"/><polygon class="cls-242" points="142.94 80.02 .5 222.46 .5 221.49 141.97 80.02 142.94 80.02"/><polygon class="cls-239" points="143.91 80.02 .5 223.43 .5 222.46 142.94 80.02 143.91 80.02"/><polygon class="cls-239" points="144.87 80.02 .5 224.4 .5 223.43 143.91 80.02 144.87 80.02"/><polygon class="cls-238" points="145.84 80.02 .5 225.37 .5 224.4 144.87 80.02 145.84 80.02"/><polygon class="cls-241" points="146.81 80.02 .5 226.34 .5 225.37 145.84 80.02 146.81 80.02"/><polygon class="cls-241" points="147.78 80.02 .5 227.3 .5 226.34 146.81 80.02 147.78 80.02"/><polygon class="cls-190" points="148.75 80.02 .5 228.27 .5 227.3 147.78 80.02 148.75 80.02"/><polygon class="cls-188" points="149.72 80.02 .5 229.24 .5 228.27 148.75 80.02 149.72 80.02"/><polygon class="cls-187" points="150.69 80.02 .5 230.21 .5 229.24 149.72 80.02 150.69 80.02"/><polygon class="cls-189" points="151.65 80.02 .5 231.18 .5 230.21 150.69 80.02 151.65 80.02"/><polygon class="cls-189" points="152.62 80.02 .5 232.15 .5 231.18 151.65 80.02 152.62 80.02"/><polygon class="cls-193" points="153.59 80.02 .5 233.12 .5 232.15 152.62 80.02 153.59 80.02"/><polygon class="cls-194" points="154.56 80.02 .5 234.08 .5 233.12 153.59 80.02 154.56 80.02"/><polygon class="cls-195" points="155.53 80.02 .5 235.05 .5 234.08 154.56 80.02 155.53 80.02"/><polygon class="cls-191" points="156.5 80.02 .5 236.02 .5 235.05 155.53 80.02 156.5 80.02"/><polygon class="cls-192" points="157.47 80.02 .5 236.99 .5 236.02 156.5 80.02 157.47 80.02"/><polygon class="cls-184" points="158.43 80.02 .5 237.96 .5 236.99 157.47 80.02 158.43 80.02"/><polygon class="cls-186" points="159.4 80.02 .5 238.93 .5 237.96 158.43 80.02 159.4 80.02"/><polygon class="cls-186" points="160.37 80.02 .5 239.9 .5 238.93 159.4 80.02 160.37 80.02"/><polygon class="cls-83" points="161.34 80.02 .5 240.87 .5 239.9 160.37 80.02 161.34 80.02"/><polygon class="cls-82" points="162.31 80.02 .5 241.83 .5 240.87 161.34 80.02 162.31 80.02"/><polygon class="cls-84" points="163.28 80.02 .5 242.8 .5 241.83 162.31 80.02 163.28 80.02"/><polygon class="cls-88" points="164.25 80.02 .5 243.77 .5 242.8 163.28 80.02 164.25 80.02"/><polygon class="cls-88" points="165.22 80.02 .5 244.74 .5 243.77 164.25 80.02 165.22 80.02"/><polygon class="cls-89" points="166.18 80.02 .5 245.71 .5 244.74 165.22 80.02 166.18 80.02"/><polygon class="cls-93" points="167.15 80.02 .5 246.68 .5 245.71 166.18 80.02 167.15 80.02"/><polygon class="cls-92" points="168.12 80.02 .5 247.65 .5 246.68 167.15 80.02 168.12 80.02"/><polygon class="cls-90" points="169.09 80.02 .5 248.61 .5 247.65 168.12 80.02 169.09 80.02"/><polygon class="cls-91" points="170.06 80.02 .5 249.58 .5 248.61 169.09 80.02 170.06 80.02"/><polygon class="cls-91" points="171.03 80.02 .5 250.55 .5 249.58 170.06 80.02 171.03 80.02"/><polygon class="cls-301" points="172 80.02 .5 251.52 .5 250.55 171.03 80.02 172 80.02"/><polygon class="cls-302" points="172.96 80.02 .5 252.49 .5 251.52 172 80.02 172.96 80.02"/><polygon class="cls-307" points="173.93 80.02 .5 253.46 .5 252.49 172.96 80.02 173.93 80.02"/><polygon class="cls-305" points="174.9 80.02 .5 254.43 .5 253.46 173.93 80.02 174.9 80.02"/><polygon class="cls-304" points="175.87 80.02 .5 255.39 .5 254.43 174.9 80.02 175.87 80.02"/><polygon class="cls-300" points="176.84 80.02 .5 256.36 .5 255.39 175.87 80.02 176.84 80.02"/><polygon class="cls-303" points="177.81 80.02 .5 257.33 .5 256.36 176.84 80.02 177.81 80.02"/><polygon class="cls-306" points="178.78 80.02 .5 258.3 .5 257.33 177.81 80.02 178.78 80.02"/><polygon class="cls-299" points="179.74 80.02 .5 259.27 .5 258.3 178.78 80.02 179.74 80.02"/><polygon class="cls-298" points="180.71 80.02 .5 260.24 .5 259.27 179.74 80.02 180.71 80.02"/><polygon class="cls-308" points="181.68 80.02 .5 261.21 .5 260.24 180.71 80.02 181.68 80.02"/><polygon class="cls-106" points="182.65 80.02 .5 262.17 .5 261.21 181.68 80.02 182.65 80.02"/><polygon class="cls-118" points="183.62 80.02 .5 263.14 .5 262.17 182.65 80.02 183.62 80.02"/><polygon class="cls-117" points="184.59 80.02 .5 264.11 .5 263.14 183.62 80.02 184.59 80.02"/><polygon class="cls-104" points="185.56 80.02 .5 265.08 .5 264.11 184.59 80.02 185.56 80.02"/><polygon class="cls-108" points="186.52 80.02 .5 266.05 .5 265.08 185.56 80.02 186.52 80.02"/><polygon class="cls-102" points="187.49 80.02 .5 267.02 .5 266.05 186.52 80.02 187.49 80.02"/><polygon class="cls-109" points="188.46 80.02 .5 267.99 .5 267.02 187.49 80.02 188.46 80.02"/><polygon class="cls-110" points="189.43 80.02 .5 268.95 .5 267.99 188.46 80.02 189.43 80.02"/><polygon class="cls-101" points="190.4 80.02 .5 269.92 .5 268.95 189.43 80.02 190.4 80.02"/><polygon class="cls-236" points="191.37 80.02 .5 270.89 .5 269.92 190.4 80.02 191.37 80.02"/><polygon class="cls-218" points="192.34 80.02 .5 271.86 .5 270.89 191.37 80.02 192.34 80.02"/><polygon class="cls-217" points="193.3 80.02 .5 272.83 .5 271.86 192.34 80.02 193.3 80.02"/><polygon class="cls-223" points="194.27 80.02 .5 273.8 .5 272.83 193.3 80.02 194.27 80.02"/><polygon class="cls-222" points="195.24 80.02 .5 274.77 .5 273.8 194.27 80.02 195.24 80.02"/><polygon class="cls-221" points="196.21 80.02 .5 275.73 .5 274.77 195.24 80.02 196.21 80.02"/><polygon class="cls-215" points="197.18 80.02 .5 276.7 .5 275.73 196.21 80.02 197.18 80.02"/><polygon class="cls-216" points="198.15 80.02 .5 277.67 .5 276.7 197.18 80.02 198.15 80.02"/><polygon class="cls-219" points="199.12 80.02 .5 278.64 .5 277.67 198.15 80.02 199.12 80.02"/><polygon class="cls-220" points="200.08 80.02 .5 279.61 .5 278.64 199.12 80.02 200.08 80.02"/><polygon class="cls-198" points="201.05 80.02 .5 280.58 .5 279.61 200.08 80.02 201.05 80.02"/><polygon class="cls-199" points="202.02 80.02 .5 281.55 .5 280.58 201.05 80.02 202.02 80.02"/><polygon class="cls-197" points="202.99 80.02 .5 282.51 .5 281.55 202.02 80.02 202.99 80.02"/><polygon class="cls-196" points="203.96 80.02 .5 283.48 .5 282.51 202.99 80.02 203.96 80.02"/><polygon class="cls-53" points="204.93 80.02 .5 284.45 .5 283.48 203.96 80.02 204.93 80.02"/><polygon class="cls-51" points="205.9 80.02 .5 285.42 .5 284.45 204.93 80.02 205.9 80.02"/><polygon class="cls-44" points="206.86 80.02 .5 286.39 .5 285.42 205.9 80.02 206.86 80.02"/><polygon class="cls-43" points="207.83 80.02 .5 287.36 .5 286.39 206.86 80.02 207.83 80.02"/><polygon class="cls-45" points="208.8 80.02 .5 288.33 .5 287.36 207.83 80.02 208.8 80.02"/><polygon class="cls-12" points="209.5 80.29 .5 289.29 .5 288.33 208.8 80.02 209.5 80.02 209.5 80.29"/><polygon class="cls-13" points="209.5 81.26 .5 290.26 .5 289.29 209.5 80.29 209.5 81.26"/><polygon class="cls-15" points="209.5 82.23 .5 291.23 .5 290.26 209.5 81.26 209.5 82.23"/><polygon class="cls-14" points="209.5 83.2 .5 292.2 .5 291.23 209.5 82.23 209.5 83.2"/><polygon class="cls-18" points="209.5 84.17 .5 293.17 .5 292.2 209.5 83.2 209.5 84.17"/><polygon class="cls-19" points="209.5 85.14 .5 294.14 .5 293.17 209.5 84.17 209.5 85.14"/><polygon class="cls-11" points="209.5 86.11 .5 295.11 .5 294.14 209.5 85.14 209.5 86.11"/><polygon class="cls-10" points="209.5 87.07 .5 296.07 .5 295.11 209.5 86.11 209.5 87.07"/><polygon class="cls-16" points="209.5 88.04 .5 297.04 .5 296.07 209.5 87.07 209.5 88.04"/><polygon class="cls-208" points="209.5 89.01 .5 298.01 .5 297.04 209.5 88.04 209.5 89.01"/><polygon class="cls-133" points="209.5 89.98 .5 298.98 .5 298.01 209.5 89.01 209.5 89.98"/><polygon class="cls-132" points="209.5 90.95 .5 299.95 .5 298.98 209.5 89.98 209.5 90.95"/><polygon class="cls-138" points="209.5 91.92 .5 300.92 .5 299.95 209.5 90.95 209.5 91.92"/><polygon class="cls-136" points="209.5 92.89 .5 301.89 .5 300.92 209.5 91.92 209.5 92.89"/><polygon class="cls-207" points="209.5 93.85 .5 302.85 .5 301.89 209.5 92.89 209.5 93.85"/><polygon class="cls-206" points="209.5 94.82 .5 303.82 .5 302.85 209.5 93.85 209.5 94.82"/><polygon class="cls-129" points="209.5 95.79 .5 304.79 .5 303.82 209.5 94.82 209.5 95.79"/><polygon class="cls-131" points="209.5 96.76 .5 305.76 .5 304.79 209.5 95.79 209.5 96.76"/><polygon class="cls-154" points="209.5 97.73 .5 306.73 .5 305.76 209.5 96.76 209.5 97.73"/><polygon class="cls-155" points="209.5 98.7 .5 307.7 .5 306.73 209.5 97.73 209.5 98.7"/><polygon class="cls-156" points="209.5 99.67 .5 308.67 .5 307.7 209.5 98.7 209.5 99.67"/><polygon class="cls-157" points="209.5 100.63 .5 309.63 .5 308.67 209.5 99.67 209.5 100.63"/><polygon class="cls-151" points="209.5 101.6 .5 310.6 .5 309.63 209.5 100.63 209.5 101.6"/><polygon class="cls-150" points="209.5 102.57 .5 311.57 .5 310.6 209.5 101.6 209.5 102.57"/><polygon class="cls-152" points="209.5 103.54 .5 312.54 .5 311.57 209.5 102.57 209.5 103.54"/><polygon class="cls-153" points="209.5 104.51 .5 313.51 .5 312.54 209.5 103.54 209.5 104.51"/><polygon class="cls-32" points="209.5 105.48 .5 314.48 .5 313.51 209.5 104.51 209.5 105.48"/><polygon class="cls-33" points="209.5 106.45 .5 315.45 .5 314.48 209.5 105.48 209.5 106.45"/><polygon class="cls-41" points="209.5 107.41 .5 316.41 .5 315.45 209.5 106.45 209.5 107.41"/><polygon class="cls-40" points="209.5 108.38 .5 317.38 .5 316.41 209.5 107.41 209.5 108.38"/><polygon class="cls-39" points="209.5 109.35 .5 318.35 .5 317.38 209.5 108.38 209.5 109.35"/><polygon class="cls-42" points="209.5 110.32 .5 319.32 .5 318.35 209.5 109.35 209.5 110.32"/><polygon class="cls-34" points="209.5 111.29 .5 320.29 .5 319.32 209.5 110.32 209.5 111.29"/><polygon class="cls-35" points="209.5 112.26 .5 321.26 .5 320.29 209.5 111.29 209.5 112.26"/><polygon class="cls-27" points="209.5 113.23 .5 322.23 .5 321.26 209.5 112.26 209.5 113.23"/><polygon class="cls-70" points="209.5 114.2 .5 323.2 .5 322.23 209.5 113.23 209.5 114.2"/><polygon class="cls-69" points="209.5 115.16 .5 324.16 .5 323.2 209.5 114.2 209.5 115.16"/><polygon class="cls-68" points="209.5 116.13 .5 325.13 .5 324.16 209.5 115.16 209.5 116.13"/><polygon class="cls-79" points="209.5 117.1 .5 326.1 .5 325.13 209.5 116.13 209.5 117.1"/><polygon class="cls-78" points="209.5 118.07 .5 327.07 .5 326.1 209.5 117.1 209.5 118.07"/><polygon class="cls-73" points="209.5 119.04 .5 328.04 .5 327.07 209.5 118.07 209.5 119.04"/><polygon class="cls-76" points="209.5 120.01 .5 329.01 .5 328.04 209.5 119.04 209.5 120.01"/><polygon class="cls-75" points="209.5 120.98 .5 329.98 .5 329.01 209.5 120.01 209.5 120.98"/><polygon class="cls-64" points="209.5 121.94 .5 330.94 .5 329.98 209.5 120.98 209.5 121.94"/><polygon class="cls-65" points="209.5 122.91 .5 331.91 .5 330.94 209.5 121.94 209.5 122.91"/><polygon class="cls-60" points="209.5 123.88 .5 332.88 .5 331.91 209.5 122.91 209.5 123.88"/><polygon class="cls-59" points="209.5 124.85 .5 333.85 .5 332.88 209.5 123.88 209.5 124.85"/><polygon class="cls-54" points="209.5 125.82 .5 334.82 .5 333.85 209.5 124.85 209.5 125.82"/><polygon class="cls-55" points="209.5 126.79 .5 335.79 .5 334.82 209.5 125.82 209.5 126.79"/><polygon class="cls-67" points="209.5 127.76 .5 336.76 .5 335.79 209.5 126.79 209.5 127.76"/><polygon class="cls-61" points="209.5 128.72 .5 337.72 .5 336.76 209.5 127.76 209.5 128.72"/><polygon class="cls-250" points="209.5 129.69 .5 338.69 .5 337.72 209.5 128.72 209.5 129.69"/><polygon class="cls-251" points="209.5 130.66 .5 339.66 .5 338.69 209.5 129.69 209.5 130.66"/><polygon class="cls-264" points="209.5 131.63 .5 340.63 .5 339.66 209.5 130.66 209.5 131.63"/><polygon class="cls-263" points="209.5 132.6 .5 341.6 .5 340.63 209.5 131.63 209.5 132.6"/><polygon class="cls-262" points="209.5 133.57 .5 342.57 .5 341.6 209.5 132.6 209.5 133.57"/><polygon class="cls-261" points="209.5 134.54 .5 343.54 .5 342.57 209.5 133.57 209.5 134.54"/><polygon class="cls-275" points="209.5 135.5 .5 344.5 .5 343.54 209.5 134.54 209.5 135.5"/><polygon class="cls-281" points="209.5 136.47 .5 345.47 .5 344.5 209.5 135.5 209.5 136.47"/><polygon class="cls-270" points="209.5 137.44 .5 346.44 .5 345.47 209.5 136.47 209.5 137.44"/><polygon class="cls-268" points="209.5 138.41 .5 347.41 .5 346.44 209.5 137.44 209.5 138.41"/><polygon class="cls-269" points="209.5 139.38 .5 348.38 .5 347.41 209.5 138.41 209.5 139.38"/><polygon class="cls-255" points="209.5 140.35 .5 349.35 .5 348.38 209.5 139.38 209.5 140.35"/><polygon class="cls-256" points="209.5 141.32 .5 350.32 .5 349.35 209.5 140.35 209.5 141.32"/><polygon class="cls-259" points="209.5 142.28 .5 351.28 .5 350.32 209.5 141.32 209.5 142.28"/><polygon class="cls-260" points="209.5 143.25 .5 352.25 .5 351.28 209.5 142.28 209.5 143.25"/><polygon class="cls-265" points="209.5 144.22 .5 353.22 .5 352.25 209.5 143.25 209.5 144.22"/><polygon class="cls-290" points="209.5 145.19 .5 354.19 .5 353.22 209.5 144.22 209.5 145.19"/><polygon class="cls-291" points="209.5 146.16 .5 355.16 .5 354.19 209.5 145.19 209.5 146.16"/><polygon class="cls-315" points="209.5 147.13 .5 356.13 .5 355.16 209.5 146.16 209.5 147.13"/><polygon class="cls-316" points="209.5 148.1 .5 357.1 .5 356.13 209.5 147.13 209.5 148.1"/><polygon class="cls-313" points="209.5 149.06 .5 358.06 .5 357.1 209.5 148.1 209.5 149.06"/><polygon class="cls-311" points="209.5 150.03 .5 359.03 .5 358.06 209.5 149.06 209.5 150.03"/><polygon class="cls-319" points="209.5 151 .5 360 .5 359.03 209.5 150.03 209.5 151"/><polygon class="cls-326" points="209.5 151.97 .5 360.97 .5 360 209.5 151 209.5 151.97"/><polygon class="cls-322" points="209.5 152.94 .5 361.94 .5 360.97 209.5 151.97 209.5 152.94"/><polygon class="cls-325" points="209.5 153.91 .5 362.91 .5 361.94 209.5 152.94 209.5 153.91"/><polygon class="cls-321" points="209.5 154.88 .5 363.88 .5 362.91 209.5 153.91 209.5 154.88"/><polygon class="cls-327" points="209.5 155.84 .5 364.84 .5 363.88 209.5 154.88 209.5 155.84"/><polygon class="cls-328" points="209.5 156.81 .5 365.81 .5 364.84 209.5 155.84 209.5 156.81"/><polygon class="cls-329" points="209.5 157.78 .5 366.78 .5 365.81 209.5 156.81 209.5 157.78"/><polygon class="cls-330" points="209.5 158.75 .5 367.75 .5 366.78 209.5 157.78 209.5 158.75"/><polygon class="cls-253" points="209.5 159.72 .5 368.72 .5 367.75 209.5 158.75 209.5 159.72"/><polygon class="cls-254" points="209.5 160.69 .5 369.69 .5 368.72 209.5 159.72 209.5 160.69"/><polygon class="cls-246" points="209.5 161.66 .5 370.66 .5 369.69 209.5 160.69 209.5 161.66"/><polygon class="cls-247" points="209.5 162.62 .5 371.62 .5 370.66 209.5 161.66 209.5 162.62"/><polygon class="cls-243" points="209.5 163.59 .5 372.59 .5 371.62 209.5 162.62 209.5 163.59"/><polygon class="cls-248" points="209.5 164.56 .5 373.56 .5 372.59 209.5 163.59 209.5 164.56"/><polygon class="cls-249" points="209.5 165.53 .5 374.53 .5 373.56 209.5 164.56 209.5 165.53"/><polygon class="cls-252" points="209.5 166.5 .5 375.5 .5 374.53 209.5 165.53 209.5 166.5"/><polygon class="cls-203" points="209.5 167.47 .5 376.47 .5 375.5 209.5 166.5 209.5 167.47"/><polygon class="cls-209" points="209.5 168.44 .5 377.44 .5 376.47 209.5 167.47 209.5 168.44"/><polygon class="cls-211" points="209.5 169.4 .5 378.4 .5 377.44 209.5 168.44 209.5 169.4"/><polygon class="cls-204" points="209.5 170.37 .5 379.37 .5 378.4 209.5 169.4 209.5 170.37"/><polygon class="cls-204" points="209.5 171.73 .5 380.73 .5 379.37 209.5 170.37 209.5 171.73"/><polygon class="cls-202" points="209.5 173.09 .5 382.09 .5 380.73 209.5 171.73 209.5 173.09"/><polygon class="cls-211" points="209.5 174.45 .5 383.45 .5 382.09 209.5 173.09 209.5 174.45"/><polygon class="cls-209" points="209.5 175.8 .5 384.8 .5 383.45 209.5 174.45 209.5 175.8"/><polygon class="cls-210" points="209.5 177.16 .5 386.16 .5 384.8 209.5 175.8 209.5 177.16"/><polygon class="cls-205" points="209.5 178.52 .5 387.52 .5 386.16 209.5 177.16 209.5 178.52"/><polygon class="cls-203" points="209.5 179.88 .5 388.88 .5 387.52 209.5 178.52 209.5 179.88"/><polygon class="cls-252" points="209.5 181.23 .5 390.23 .5 388.88 209.5 179.88 209.5 181.23"/><polygon class="cls-249" points="209.5 182.59 .5 391.59 .5 390.23 209.5 181.23 209.5 182.59"/><polygon class="cls-249" points="209.5 183.95 .5 392.95 .5 391.59 209.5 182.59 209.5 183.95"/><polygon class="cls-248" points="209.5 185.31 .5 394.31 .5 392.95 209.5 183.95 209.5 185.31"/><polygon class="cls-244" points="209.5 186.66 .5 395.66 .5 394.31 209.5 185.31 209.5 186.66"/><polygon class="cls-243" points="209.5 188.02 .5 397.02 .5 395.66 209.5 186.66 209.5 188.02"/><polygon class="cls-245" points="209.5 189.38 .5 398.38 .5 397.02 209.5 188.02 209.5 189.38"/><polygon class="cls-247" points="209.5 190.74 .5 399.74 .5 398.38 209.5 189.38 209.5 190.74"/><polygon class="cls-246" points="209.5 192.09 .5 401.09 .5 399.74 209.5 190.74 209.5 192.09"/><polygon class="cls-254" points="209.5 193.45 .5 402.45 .5 401.09 209.5 192.09 209.5 193.45"/><polygon class="cls-323" points="209.5 194.81 .5 403.81 .5 402.45 209.5 193.45 209.5 194.81"/><polygon class="cls-324" points="209.5 196.17 .5 405.17 .5 403.81 209.5 194.81 209.5 196.17"/><polygon class="cls-330" points="209.5 197.52 .5 406.52 .5 405.17 209.5 196.17 209.5 197.52"/><polygon class="cls-330" points="209.5 198.88 .5 407.88 .5 406.52 209.5 197.52 209.5 198.88"/><polygon class="cls-329" points="209.5 200.24 .5 409.24 .5 407.88 209.5 198.88 209.5 200.24"/><polygon class="cls-328" points="209.5 201.6 .5 410.6 .5 409.24 209.5 200.24 209.5 201.6"/><polygon class="cls-327" points="209.5 202.95 .5 411.95 .5 410.6 209.5 201.6 209.5 202.95"/><polygon class="cls-321" points="209.5 204.31 .5 413.31 .5 411.95 209.5 202.95 209.5 204.31"/><polygon class="cls-320" points="209.5 205.67 .5 414.67 .5 413.31 209.5 204.31 209.5 205.67"/><polygon class="cls-314" points="209.5 207.03 .5 416.03 .5 414.67 209.5 205.67 209.5 207.03"/><polygon class="cls-314" points="209.5 208.38 .5 417.38 .5 416.03 209.5 207.03 209.5 208.38"/><polygon class="cls-317" points="209.5 209.74 .5 418.74 .5 417.38 209.5 208.38 209.5 209.74"/><polygon class="cls-318" points="209.5 211.1 .5 420.1 .5 418.74 209.5 209.74 209.5 211.1"/><polygon class="cls-319" points="209.5 212.46 .5 421.46 .5 420.1 209.5 211.1 209.5 212.46"/><polygon class="cls-311" points="209.5 213.81 .5 422.81 .5 421.46 209.5 212.46 209.5 213.81"/><polygon class="cls-312" points="209.5 215.17 .5 424.17 .5 422.81 209.5 213.81 209.5 215.17"/><polygon class="cls-313" points="209.5 216.53 .5 425.53 .5 424.17 209.5 215.17 209.5 216.53"/><polygon class="cls-316" points="209.5 217.89 .5 426.89 .5 425.53 209.5 216.53 209.5 217.89"/><polygon class="cls-315" points="209.5 219.24 .5 428.24 .5 426.89 209.5 217.89 209.5 219.24"/><polygon class="cls-257" points="209.5 220.6 .5 429.6 .5 428.24 209.5 219.24 209.5 220.6"/><polygon class="cls-258" points="209.5 221.96 .5 430.96 .5 429.6 209.5 220.6 209.5 221.96"/><polygon class="cls-267" points="209.5 223.32 .5 432.32 .5 430.96 209.5 221.96 209.5 223.32"/><polygon class="cls-266" points="209.5 224.67 .5 433.67 .5 432.32 209.5 223.32 209.5 224.67"/><polygon class="cls-265" points="209.5 226.03 .5 435.03 .5 433.67 209.5 224.67 209.5 226.03"/><polygon class="cls-260" points="209.5 227.39 .5 436.39 .5 435.03 209.5 226.03 209.5 227.39"/><polygon class="cls-259" points="209.5 228.75 .5 437.75 .5 436.39 209.5 227.39 209.5 228.75"/><polygon class="cls-256" points="209.5 230.1 .5 439.1 .5 437.75 209.5 228.75 209.5 230.1"/><polygon class="cls-255" points="209.5 231.46 .5 440.46 .5 439.1 209.5 230.1 209.5 231.46"/><polygon class="cls-279" points="209.5 232.82 .5 441.82 .5 440.46 209.5 231.46 209.5 232.82"/><polygon class="cls-280" points="209.5 234.18 .5 443.18 .5 441.82 209.5 232.82 209.5 234.18"/><polygon class="cls-278" points="209.5 235.53 .5 444.53 .5 443.18 209.5 234.18 209.5 235.53"/><polygon class="cls-277" points="209.5 236.89 .5 445.89 .5 444.53 209.5 235.53 209.5 236.89"/><polygon class="cls-281" points="209.5 238.25 .5 447.25 .5 445.89 209.5 236.89 209.5 238.25"/><polygon class="cls-275" points="209.5 239.61 .5 448.61 .5 447.25 209.5 238.25 209.5 239.61"/><polygon class="cls-276" points="209.5 240.96 .5 449.96 .5 448.61 209.5 239.61 209.5 240.96"/><polygon class="cls-262" points="209.5 242.32 1.8 450.02 .5 450.02 .5 449.96 209.5 240.96 209.5 242.32"/><polygon class="cls-58" points="209.5 243.68 3.16 450.02 1.8 450.02 209.5 242.32 209.5 243.68"/><polygon class="cls-57" points="209.5 245.04 4.51 450.02 3.16 450.02 209.5 243.68 209.5 245.04"/><polygon class="cls-66" points="209.5 246.39 5.87 450.02 4.51 450.02 209.5 245.04 209.5 246.39"/><polygon class="cls-66" points="209.5 247.75 7.23 450.02 5.87 450.02 209.5 246.39 209.5 247.75"/><polygon class="cls-62" points="209.5 249.11 8.59 450.02 7.23 450.02 209.5 247.75 209.5 249.11"/><polygon class="cls-63" points="209.5 250.47 9.94 450.02 8.59 450.02 209.5 249.11 209.5 250.47"/><polygon class="cls-61" points="209.5 251.82 11.3 450.02 9.94 450.02 209.5 250.47 209.5 251.82"/><polygon class="cls-67" points="209.5 253.18 12.66 450.02 11.3 450.02 209.5 251.82 209.5 253.18"/><polygon class="cls-55" points="209.5 254.54 14.02 450.02 12.66 450.02 209.5 253.18 209.5 254.54"/><polygon class="cls-71" points="209.5 255.9 15.37 450.02 14.02 450.02 209.5 254.54 209.5 255.9"/><polygon class="cls-72" points="209.5 257.26 16.73 450.02 15.37 450.02 209.5 255.9 209.5 257.26"/><polygon class="cls-81" points="209.5 258.61 18.09 450.02 16.73 450.02 209.5 257.26 209.5 258.61"/><polygon class="cls-80" points="209.5 259.97 19.45 450.02 18.09 450.02 209.5 258.61 209.5 259.97"/><polygon class="cls-74" points="209.5 261.33 20.8 450.02 19.45 450.02 209.5 259.97 209.5 261.33"/><polygon class="cls-77" points="209.5 262.69 22.16 450.02 20.8 450.02 209.5 261.33 209.5 262.69"/><polygon class="cls-75" points="209.5 264.04 23.52 450.02 22.16 450.02 209.5 262.69 209.5 264.04"/><polygon class="cls-76" points="209.5 265.4 24.88 450.02 23.52 450.02 209.5 264.04 209.5 265.4"/><polygon class="cls-28" points="209.5 266.76 26.23 450.02 24.88 450.02 209.5 265.4 209.5 266.76"/><polygon class="cls-29" points="209.5 268.12 27.59 450.02 26.23 450.02 209.5 266.76 209.5 268.12"/><polygon class="cls-38" points="209.5 269.47 28.95 450.02 27.59 450.02 209.5 268.12 209.5 269.47"/><polygon class="cls-37" points="209.5 270.83 30.31 450.02 28.95 450.02 209.5 269.47 209.5 270.83"/><polygon class="cls-36" points="209.5 272.19 31.66 450.02 30.31 450.02 209.5 270.83 209.5 272.19"/><polygon class="cls-30" points="209.5 273.55 33.02 450.02 31.66 450.02 209.5 272.19 209.5 273.55"/><polygon class="cls-31" points="209.5 274.9 34.38 450.02 33.02 450.02 209.5 273.55 209.5 274.9"/><polygon class="cls-27" points="209.5 276.26 35.74 450.02 34.38 450.02 209.5 274.9 209.5 276.26"/><polygon class="cls-20" points="209.5 277.62 37.09 450.02 35.74 450.02 209.5 276.26 209.5 277.62"/><polygon class="cls-21" points="209.5 278.98 38.45 450.02 37.09 450.02 209.5 277.62 209.5 278.98"/><polygon class="cls-22" points="209.5 280.33 39.81 450.02 38.45 450.02 209.5 278.98 209.5 280.33"/><polygon class="cls-23" points="209.5 281.69 41.17 450.02 39.81 450.02 209.5 280.33 209.5 281.69"/><polygon class="cls-24" points="209.5 283.05 42.52 450.02 41.17 450.02 209.5 281.69 209.5 283.05"/><polygon class="cls-25" points="209.5 284.41 43.88 450.02 42.52 450.02 209.5 283.05 209.5 284.41"/><polygon class="cls-26" points="209.5 285.76 45.24 450.02 43.88 450.02 209.5 284.41 209.5 285.76"/><polygon class="cls-148" points="209.5 287.12 46.6 450.02 45.24 450.02 209.5 285.76 209.5 287.12"/><polygon class="cls-149" points="209.5 288.48 47.95 450.02 46.6 450.02 209.5 287.12 209.5 288.48"/><polygon class="cls-128" points="209.5 289.84 49.31 450.02 47.95 450.02 209.5 288.48 209.5 289.84"/><polygon class="cls-126" points="209.5 291.19 50.67 450.02 49.31 450.02 209.5 289.84 209.5 291.19"/><polygon class="cls-127" points="209.5 292.55 52.03 450.02 50.67 450.02 209.5 291.19 209.5 292.55"/><polygon class="cls-139" points="209.5 293.91 53.38 450.02 52.03 450.02 209.5 292.55 209.5 293.91"/><polygon class="cls-130" points="209.5 295.27 54.74 450.02 53.38 450.02 209.5 293.91 209.5 295.27"/><polygon class="cls-137" points="209.5 296.62 56.1 450.02 54.74 450.02 209.5 295.27 209.5 296.62"/><polygon class="cls-134" points="209.5 297.98 57.46 450.02 56.1 450.02 209.5 296.62 209.5 297.98"/><polygon class="cls-135" points="209.5 299.34 58.81 450.02 57.46 450.02 209.5 297.98 209.5 299.34"/><polygon class="cls-7" points="209.5 300.7 60.17 450.02 58.81 450.02 209.5 299.34 209.5 300.7"/><polygon class="cls-4" points="209.5 302.05 61.53 450.02 60.17 450.02 209.5 300.7 209.5 302.05"/><polygon class="cls-3" points="209.5 303.41 62.89 450.02 61.53 450.02 209.5 302.05 209.5 303.41"/><polygon class="cls-9" points="209.5 304.77 64.24 450.02 62.89 450.02 209.5 303.41 209.5 304.77"/><polygon class="cls-8" points="209.5 306.13 65.6 450.02 64.24 450.02 209.5 304.77 209.5 306.13"/><polygon class="cls-6" points="209.5 307.48 66.96 450.02 65.6 450.02 209.5 306.13 209.5 307.48"/><polygon class="cls-5" points="209.5 308.84 68.32 450.02 66.96 450.02 209.5 307.48 209.5 308.84"/><polygon class="cls-17" points="209.5 310.2 69.67 450.02 68.32 450.02 209.5 308.84 209.5 310.2"/><polygon class="cls-52" points="209.5 311.56 71.03 450.02 69.67 450.02 209.5 310.2 209.5 311.56"/><polygon class="cls-50" points="209.5 312.91 72.39 450.02 71.03 450.02 209.5 311.56 209.5 312.91"/><polygon class="cls-49" points="209.5 314.27 73.75 450.02 72.39 450.02 209.5 312.91 209.5 314.27"/><polygon class="cls-46" points="209.5 315.63 75.1 450.02 73.75 450.02 209.5 314.27 209.5 315.63"/><polygon class="cls-47" points="209.5 316.99 76.46 450.02 75.1 450.02 209.5 315.63 209.5 316.99"/><polygon class="cls-48" points="209.5 318.34 77.82 450.02 76.46 450.02 209.5 316.99 209.5 318.34"/><polygon class="cls-201" points="209.5 319.7 79.18 450.02 77.82 450.02 209.5 318.34 209.5 319.7"/><polygon class="cls-200" points="209.5 321.06 80.53 450.02 79.18 450.02 209.5 319.7 209.5 321.06"/><polygon class="cls-225" points="209.5 322.42 81.89 450.02 80.53 450.02 209.5 321.06 209.5 322.42"/><polygon class="cls-226" points="209.5 323.77 83.25 450.02 81.89 450.02 209.5 322.42 209.5 323.77"/><polygon class="cls-229" points="209.5 325.13 84.61 450.02 83.25 450.02 209.5 323.77 209.5 325.13"/><polygon class="cls-230" points="209.5 326.49 85.96 450.02 84.61 450.02 209.5 325.13 209.5 326.49"/><polygon class="cls-228" points="209.5 327.85 87.32 450.02 85.96 450.02 209.5 326.49 209.5 327.85"/><polygon class="cls-227" points="209.5 329.2 88.68 450.02 87.32 450.02 209.5 327.85 209.5 329.2"/><polygon class="cls-224" points="209.5 330.56 90.04 450.02 88.68 450.02 209.5 329.2 209.5 330.56"/><polygon class="cls-98" points="209.5 331.92 91.39 450.02 90.04 450.02 209.5 330.56 209.5 331.92"/><polygon class="cls-115" points="209.5 333.28 92.75 450.02 91.39 450.02 209.5 331.92 209.5 333.28"/><polygon class="cls-116" points="209.5 334.63 94.11 450.02 92.75 450.02 209.5 333.28 209.5 334.63"/><polygon class="cls-97" points="209.5 335.99 95.47 450.02 94.11 450.02 209.5 334.63 209.5 335.99"/><polygon class="cls-96" points="209.5 337.35 96.82 450.02 95.47 450.02 209.5 335.99 209.5 337.35"/><polygon class="cls-107" points="209.5 338.71 98.18 450.02 96.82 450.02 209.5 337.35 209.5 338.71"/><polygon class="cls-105" points="209.5 340.06 99.54 450.02 98.18 450.02 209.5 338.71 209.5 340.06"/><polygon class="cls-103" points="209.5 341.42 100.9 450.02 99.54 450.02 209.5 340.06 209.5 341.42"/><polygon class="cls-294" points="209.5 342.78 102.26 450.02 100.9 450.02 209.5 341.42 209.5 342.78"/><polygon class="cls-293" points="209.5 344.14 103.61 450.02 102.26 450.02 209.5 342.78 209.5 344.14"/><polygon class="cls-292" points="209.5 345.49 104.97 450.02 103.61 450.02 209.5 344.14 209.5 345.49"/><polygon class="cls-310" points="209.5 346.85 106.33 450.02 104.97 450.02 209.5 345.49 209.5 346.85"/><polygon class="cls-309" points="209.5 348.21 107.69 450.02 106.33 450.02 209.5 346.85 209.5 348.21"/><polygon class="cls-295" points="209.5 349.57 109.04 450.02 107.69 450.02 209.5 348.21 209.5 349.57"/><polygon class="cls-296" points="209.5 350.92 110.4 450.02 109.04 450.02 209.5 349.57 209.5 350.92"/><polygon class="cls-297" points="209.5 352.28 111.76 450.02 110.4 450.02 209.5 350.92 209.5 352.28"/><polygon class="cls-85" points="209.5 353.64 113.12 450.02 111.76 450.02 209.5 352.28 209.5 353.64"/><polygon class="cls-87" points="209.5 355 114.47 450.02 113.12 450.02 209.5 353.64 209.5 355"/><polygon class="cls-86" points="209.5 356.35 115.83 450.02 114.47 450.02 209.5 355 209.5 356.35"/><polygon class="cls-234" points="209.5 357.71 117.19 450.02 115.83 450.02 209.5 356.35 209.5 357.71"/><polygon class="cls-231" points="209.5 359.07 118.55 450.02 117.19 450.02 209.5 357.71 209.5 359.07"/><polygon class="cls-233" points="209.5 360.43 119.9 450.02 118.55 450.02 209.5 359.07 209.5 360.43"/><polygon class="cls-232" points="209.5 361.78 121.26 450.02 119.9 450.02 209.5 360.43 209.5 361.78"/><polygon class="cls-235" points="209.5 363.14 122.62 450.02 121.26 450.02 209.5 361.78 209.5 363.14"/><polygon class="cls-174" points="209.5 364.5 123.98 450.02 122.62 450.02 209.5 363.14 209.5 364.5"/><polygon class="cls-177" points="209.5 365.86 125.33 450.02 123.98 450.02 209.5 364.5 209.5 365.86"/><polygon class="cls-178" points="209.5 367.22 126.69 450.02 125.33 450.02 209.5 365.86 209.5 367.22"/><polygon class="cls-176" points="209.5 368.57 128.05 450.02 126.69 450.02 209.5 367.22 209.5 368.57"/><polygon class="cls-175" points="209.5 369.93 129.41 450.02 128.05 450.02 209.5 368.57 209.5 369.93"/><polygon class="cls-185" points="209.5 371.29 130.76 450.02 129.41 450.02 209.5 369.93 209.5 371.29"/><polygon class="cls-183" points="209.5 372.65 132.12 450.02 130.76 450.02 209.5 371.29 209.5 372.65"/><polygon class="cls-287" points="209.5 374 133.48 450.02 132.12 450.02 209.5 372.65 209.5 374"/><polygon class="cls-288" points="209.5 375.36 134.84 450.02 133.48 450.02 209.5 374 209.5 375.36"/><polygon class="cls-283" points="209.5 376.72 136.19 450.02 134.84 450.02 209.5 375.36 209.5 376.72"/><polygon class="cls-289" points="209.5 378.08 137.55 450.02 136.19 450.02 209.5 376.72 209.5 378.08"/><polygon class="cls-285" points="209.5 379.43 138.91 450.02 137.55 450.02 209.5 378.08 209.5 379.43"/><polygon class="cls-284" points="209.5 380.79 140.27 450.02 138.91 450.02 209.5 379.43 209.5 380.79"/><polygon class="cls-282" points="209.5 382.15 141.62 450.02 140.27 450.02 209.5 380.79 209.5 382.15"/><polygon class="cls-286" points="209.5 383.51 142.98 450.02 141.62 450.02 209.5 382.15 209.5 383.51"/><polygon class="cls-100" points="209.5 384.86 144.34 450.02 142.98 450.02 209.5 383.51 209.5 384.86"/><polygon class="cls-99" points="209.5 386.22 145.7 450.02 144.34 450.02 209.5 384.86 209.5 386.22"/><polygon class="cls-112" points="209.5 387.58 147.05 450.02 145.7 450.02 209.5 386.22 209.5 387.58"/><polygon class="cls-111" points="209.5 388.94 148.41 450.02 147.05 450.02 209.5 387.58 209.5 388.94"/><polygon class="cls-113" points="209.5 390.29 149.77 450.02 148.41 450.02 209.5 388.94 209.5 390.29"/><polygon class="cls-114" points="209.5 391.65 151.13 450.02 149.77 450.02 209.5 390.29 209.5 391.65"/><polygon class="cls-95" points="209.5 393.01 152.48 450.02 151.13 450.02 209.5 391.65 209.5 393.01"/><polygon class="cls-94" points="209.5 394.37 153.84 450.02 152.48 450.02 209.5 393.01 209.5 394.37"/><polygon class="cls-124" points="209.5 395.72 155.2 450.02 153.84 450.02 209.5 394.37 209.5 395.72"/><polygon class="cls-122" points="209.5 397.08 156.56 450.02 155.2 450.02 209.5 395.72 209.5 397.08"/><polygon class="cls-123" points="209.5 398.44 157.91 450.02 156.56 450.02 209.5 397.08 209.5 398.44"/><polygon class="cls-119" points="209.5 399.8 159.27 450.02 157.91 450.02 209.5 398.44 209.5 399.8"/><polygon class="cls-120" points="209.5 401.15 160.63 450.02 159.27 450.02 209.5 399.8 209.5 401.15"/><polygon class="cls-121" points="209.5 402.51 161.99 450.02 160.63 450.02 209.5 401.15 209.5 402.51"/><polygon class="cls-125" points="209.5 403.87 163.34 450.02 161.99 450.02 209.5 402.51 209.5 403.87"/><polygon class="cls-144" points="209.5 405.23 164.7 450.02 163.34 450.02 209.5 403.87 209.5 405.23"/><polygon class="cls-142" points="209.5 406.58 166.06 450.02 164.7 450.02 209.5 405.23 209.5 406.58"/><polygon class="cls-143" points="209.5 407.94 167.42 450.02 166.06 450.02 209.5 406.58 209.5 407.94"/><polygon class="cls-146" points="209.5 409.3 168.77 450.02 167.42 450.02 209.5 407.94 209.5 409.3"/><polygon class="cls-145" points="209.5 410.66 170.13 450.02 168.77 450.02 209.5 409.3 209.5 410.66"/><polygon class="cls-141" points="209.5 412.01 171.49 450.02 170.13 450.02 209.5 410.66 209.5 412.01"/><polygon class="cls-140" points="209.5 413.37 172.85 450.02 171.49 450.02 209.5 412.01 209.5 413.37"/><polygon class="cls-147" points="209.5 414.73 174.2 450.02 172.85 450.02 209.5 413.37 209.5 414.73"/><polygon class="cls-214" points="209.5 416.09 175.56 450.02 174.2 450.02 209.5 414.73 209.5 416.09"/><polygon class="cls-179" points="209.5 417.44 176.92 450.02 175.56 450.02 209.5 416.09 209.5 417.44"/><polygon class="cls-180" points="209.5 418.8 178.28 450.02 176.92 450.02 209.5 417.44 209.5 418.8"/><polygon class="cls-182" points="209.5 420.16 179.63 450.02 178.28 450.02 209.5 418.8 209.5 420.16"/><polygon class="cls-181" points="209.5 421.52 180.99 450.02 179.63 450.02 209.5 420.16 209.5 421.52"/><polygon class="cls-213" points="209.5 422.87 182.35 450.02 180.99 450.02 209.5 421.52 209.5 422.87"/><polygon class="cls-212" points="209.5 424.23 183.71 450.02 182.35 450.02 209.5 422.87 209.5 424.23"/><polygon class="cls-164" points="209.5 425.59 185.06 450.02 183.71 450.02 209.5 424.23 209.5 425.59"/><polygon class="cls-163" points="209.5 426.95 186.42 450.02 185.06 450.02 209.5 425.59 209.5 426.95"/><polygon class="cls-168" points="209.5 428.3 187.78 450.02 186.42 450.02 209.5 426.95 209.5 428.3"/><polygon class="cls-167" points="209.5 429.66 189.14 450.02 187.78 450.02 209.5 428.3 209.5 429.66"/><polygon class="cls-166" points="209.5 431.02 190.49 450.02 189.14 450.02 209.5 429.66 209.5 431.02"/><polygon class="cls-165" points="209.5 432.38 191.85 450.02 190.49 450.02 209.5 431.02 209.5 432.38"/><polygon class="cls-162" points="209.5 433.73 193.21 450.02 191.85 450.02 209.5 432.38 209.5 433.73"/><polygon class="cls-159" points="209.5 435.09 194.57 450.02 193.21 450.02 209.5 433.73 209.5 435.09"/><polygon class="cls-169" points="209.5 436.45 195.92 450.02 194.57 450.02 209.5 435.09 209.5 436.45"/><polygon class="cls-170" points="209.5 437.81 197.28 450.02 195.92 450.02 209.5 436.45 209.5 437.81"/><polygon class="cls-160" points="209.5 439.16 198.64 450.02 197.28 450.02 209.5 437.81 209.5 439.16"/><polygon class="cls-158" points="209.5 440.52 200 450.02 198.64 450.02 209.5 439.16 209.5 440.52"/><polygon class="cls-172" points="209.5 441.88 201.35 450.02 200 450.02 209.5 440.52 209.5 441.88"/><polygon class="cls-171" points="209.5 443.24 202.71 450.02 201.35 450.02 209.5 441.88 209.5 443.24"/><polygon class="cls-173" points="209.5 444.59 204.07 450.02 202.71 450.02 209.5 443.24 209.5 444.59"/><polygon class="cls-271" points="209.5 445.95 205.43 450.02 204.07 450.02 209.5 444.59 209.5 445.95"/><polygon class="cls-272" points="209.5 447.31 206.78 450.02 205.43 450.02 209.5 445.95 209.5 447.31"/><polygon class="cls-273" points="209.5 448.67 208.14 450.02 206.78 450.02 209.5 447.31 209.5 448.67"/><polygon class="cls-274" points="209.5 450.02 209.5 450.02 208.14 450.02 209.5 448.67 209.5 450.02"/></g><path d="M210,450.52H0V79.52H210V450.52Zm-209-1H209V80.52H1V449.52Z"/></g><rect class="cls-204" y="79.02" width="210" height="2"/><g><path class="cls-331" d="M210,.52c-.17,27.17-.33,54.33-.5,81.5H.5V1.26l12-.24s6,12,10,0h12s5,11,10,0h13s2,11,10,0h12s23,59,53,0h12s6,13,10,0h12s4,12,11,0h11s5,12,11,0c3.5-.17,7-.33,10.5-.5Z"/><path d="M210,82.52H0V.77l12.81-.26,.14,.28c.73,1.46,3.1,5.2,5.32,5.05,1.4-.1,2.7-1.82,3.76-4.99l.11-.34h12.68l.13,.29s2.12,4.6,4.73,4.6h0c1.49,0,2.99-1.59,4.36-4.6l.13-.29h13.74l.08,.41s.75,3.94,2.9,4.43c1.59,.36,3.73-1.24,6.2-4.63l.15-.21h12.6l.12,.32c.1,.25,9.98,25.16,24.79,25.89,9.13,.47,18.32-8.27,27.3-25.93l.14-.27h12.63l.13,.29c.73,1.58,3.12,5.62,5.29,5.48,1.41-.09,2.71-1.97,3.77-5.42l.11-.35h12.73l.11,.34s1.6,4.7,4.31,4.98c1.74,.18,3.74-1.57,5.78-5.07l.15-.25h11.62l.13,.31s2.09,4.93,4.94,5.02c1.72,.07,3.45-1.64,5.16-5.06l.13-.26,11.32-.54-.51,82.52ZM1,81.52H209l.49-80.48-9.68,.46c-1.86,3.62-3.85,5.42-5.95,5.35-3.04-.1-5.14-4.16-5.69-5.33h-10.39c-2.24,3.75-4.46,5.54-6.61,5.31-2.89-.3-4.57-4.13-5.03-5.31h-11.28c-1.21,3.76-2.7,5.65-4.55,5.77-2.93,.22-5.51-4.52-6.13-5.77h-11.38c-9.13,17.86-18.59,26.65-28.1,26.2-6.42-.32-12.9-5.02-18.74-13.6-3.82-5.61-6.23-11.22-6.8-12.6h-11.41c-2.7,3.65-5.08,5.27-7.08,4.81-2.33-.53-3.29-3.67-3.57-4.81h-12.28c-1.53,3.24-3.26,4.89-5.13,4.89-2.83,0-4.94-3.78-5.5-4.89h-11.33c-1.19,3.41-2.71,5.2-4.52,5.33-2.95,.22-5.5-4.14-6.14-5.32L1,1.75V81.52Z"/></g><rect class="cls-56" x="68" y="38.52" width="77" height="25"/><g><path class="cls-204" d="M101.62,46.6h1.83l-2.91,8.57h-1.98l-2.91-8.57h1.83l1.61,5.1c.09,.3,.18,.65,.28,1.05s.16,.68,.18,.83c.04-.36,.19-.99,.44-1.89l1.62-5.1Z"/><path class="cls-204" d="M104.53,55.16v-8.57h1.82v8.57h-1.82Z"/><path class="cls-204" d="M114.42,49.27c0,.92-.29,1.63-.86,2.12s-1.4,.73-2.46,.73h-.78v3.05h-1.82v-8.57h2.74c1.04,0,1.83,.22,2.37,.67s.81,1.11,.81,2Zm-4.1,1.36h.6c.56,0,.98-.11,1.25-.33s.42-.54,.42-.96-.12-.74-.35-.94-.6-.3-1.09-.3h-.83v2.54Z"/></g><g><path class="cls-204" d="M32.8,114.72c0,2-.62,3.52-1.87,4.58s-3.02,1.59-5.33,1.59h-1.69v6.6h-3.94v-18.56h5.93c2.25,0,3.96,.48,5.14,1.45s1.76,2.41,1.76,4.34Zm-8.89,2.95h1.29c1.21,0,2.12-.24,2.72-.72s.9-1.17,.9-2.09-.25-1.6-.76-2.04-1.29-.66-2.37-.66h-1.79v5.51Z"/><path class="cls-204" d="M47.67,127.49l-1.35-4.42h-6.77l-1.35,4.42h-4.24l6.55-18.64h4.81l6.58,18.64h-4.24Zm-2.29-7.72c-1.24-4-1.94-6.27-2.1-6.79s-.27-.94-.34-1.24c-.28,1.08-1.08,3.76-2.4,8.04h4.84Z"/><path class="cls-204" d="M58.18,120.37v7.12h-3.94v-18.56h5.41c2.52,0,4.39,.46,5.6,1.38s1.82,2.31,1.82,4.18c0,1.09-.3,2.06-.9,2.91s-1.45,1.52-2.55,2c2.79,4.17,4.61,6.87,5.46,8.09h-4.37l-4.43-7.12h-2.09Zm0-3.2h1.27c1.24,0,2.16-.21,2.75-.62s.89-1.07,.89-1.96-.3-1.51-.91-1.88-1.54-.56-2.81-.56h-1.19v5.01Z"/><path class="cls-204" d="M78.57,127.49h-3.94v-15.29h-5.04v-3.28h14.02v3.28h-5.04v15.29Z"/><path class="cls-204" d="M103.31,118.19c0,3.07-.76,5.43-2.29,7.08s-3.71,2.48-6.55,2.48-5.03-.83-6.55-2.48-2.29-4.02-2.29-7.11,.76-5.45,2.29-7.08,3.72-2.44,6.57-2.44,5.03,.82,6.54,2.46,2.27,4,2.27,7.08Zm-13.55,0c0,2.07,.39,3.64,1.18,4.68s1.96,1.57,3.53,1.57c3.14,0,4.71-2.09,4.71-6.26s-1.56-6.27-4.68-6.27c-1.57,0-2.75,.53-3.54,1.58s-1.19,2.62-1.19,4.69Z"/><path class="cls-204" d="M122.27,108.93v12.01c0,1.37-.31,2.57-.92,3.61s-1.5,1.82-2.66,2.37-2.53,.83-4.11,.83c-2.39,0-4.24-.61-5.56-1.83s-1.98-2.9-1.98-5.02v-11.96h3.92v11.36c0,1.43,.29,2.48,.86,3.15s1.53,1,2.86,1,2.22-.34,2.8-1.01,.87-1.73,.87-3.17v-11.34h3.92Z"/><path class="cls-204" d="M133.97,127.49h-3.94v-15.29h-5.04v-3.28h14.02v3.28h-5.04v15.29Z"/></g><g><path class="cls-161" d="M19.42,135.21h5.78c2.63,0,4.54,.37,5.73,1.12s1.78,1.94,1.78,3.57c0,1.11-.26,2.02-.78,2.73s-1.21,1.14-2.08,1.28v.13c1.18,.26,2.02,.75,2.55,1.47s.78,1.68,.78,2.87c0,1.69-.61,3.01-1.83,3.96s-2.88,1.42-4.98,1.42h-6.94v-18.56Zm3.94,7.35h2.29c1.07,0,1.84-.17,2.32-.5s.72-.88,.72-1.64c0-.71-.26-1.22-.78-1.53s-1.34-.46-2.47-.46h-2.07v4.13Zm0,3.12v4.84h2.56c1.08,0,1.88-.21,2.4-.62s.77-1.05,.77-1.9c0-1.54-1.1-2.31-3.3-2.31h-2.44Z"/><path class="cls-161" d="M36.89,153.77v-18.56h3.94v18.56h-3.94Z"/><path class="cls-161" d="M45.5,153.77v-18.56h3.94v15.31h7.53v3.25h-11.46Z"/><path class="cls-161" d="M60.19,153.77v-18.56h3.94v15.31h7.53v3.25h-11.46Z"/><path class="cls-161" d="M85.56,153.77h-10.69v-18.56h10.69v3.22h-6.75v4.08h6.28v3.22h-6.28v4.79h6.75v3.25Z"/><path class="cls-161" d="M96.6,153.77h-3.94v-15.29h-5.04v-3.28h14.02v3.28h-5.04v15.29Z"/></g></g></svg>